<svg width="17" height="17" viewBox="0 0 17 17" fill="none" xmlns="http://www.w3.org/2000/svg">
<path fill-rule="evenodd" clip-rule="evenodd" d="M8.4314 16.9951C12.8497 16.9951 16.4314 13.4134 16.4314 8.99512C16.4314 4.57684 12.8497 0.995117 8.4314 0.995117C4.01312 0.995117 0.431396 4.57684 0.431396 8.99512C0.431396 13.4134 4.01312 16.9951 8.4314 16.9951ZM12.2117 7.27545C12.5046 6.98256 12.5046 6.50768 12.2117 6.21479C11.9188 5.9219 11.444 5.9219 11.1511 6.21479L7.1814 10.1845L5.71173 8.71479C5.41884 8.4219 4.94396 8.4219 4.65107 8.71479C4.35818 9.00768 4.35818 9.48256 4.65107 9.77545L6.65107 11.7754C6.94396 12.0683 7.41884 12.0683 7.71173 11.7754L12.2117 7.27545Z" fill="#74E7C7"/>
</svg>
