<svg width="25" height="25" viewBox="0 0 25 25" fill="none" xmlns="http://www.w3.org/2000/svg">
<path d="M16.0114 12.995C16.0114 14.975 14.4114 16.575 12.4314 16.575C10.4514 16.575 8.85141 14.975 8.85141 12.995C8.85141 11.015 10.4514 9.41504 12.4314 9.41504C14.4114 9.41504 16.0114 11.015 16.0114 12.995Z" stroke="#111111" stroke-width="1.5" stroke-linecap="round" stroke-linejoin="round"/>
<path d="M12.4314 21.2651C15.9614 21.2651 19.2514 19.1851 21.5414 15.5851C22.4414 14.1751 22.4414 11.8051 21.5414 10.3951C19.2514 6.79509 15.9614 4.71509 12.4314 4.71509C8.90139 4.71509 5.61139 6.79509 3.32139 10.3951C2.42139 11.8051 2.42139 14.1751 3.32139 15.5851C5.61139 19.1851 8.90139 21.2651 12.4314 21.2651Z" stroke="#111111" stroke-width="1.5" stroke-linecap="round" stroke-linejoin="round"/>
</svg>
