<svg width="25" height="24" viewBox="0 0 25 24" fill="none" xmlns="http://www.w3.org/2000/svg">
<rect width="24" height="24" transform="translate(0.5)" fill="white"/>
<path d="M21.125 2.625H3.875C3.46016 2.625 3.125 2.96016 3.125 3.375V20.625C3.125 21.0398 3.46016 21.375 3.875 21.375H21.125C21.5398 21.375 21.875 21.0398 21.875 20.625V3.375C21.875 2.96016 21.5398 2.625 21.125 2.625ZM18.9594 8.09766H17.4617C16.2875 8.09766 16.0602 8.65547 16.0602 9.47578V11.2828H18.8633L18.4977 14.1117H16.0602V21.375H13.1375V14.1141H10.693V11.2828H13.1375V9.19687C13.1375 6.77578 14.6164 5.45625 16.7773 5.45625C17.8133 5.45625 18.7016 5.53359 18.9617 5.56875V8.09766H18.9594Z" fill="#1877F2"/>
</svg>
