<svg width="31" height="30" viewBox="0 0 31 30" fill="none" xmlns="http://www.w3.org/2000/svg">
<path d="M3.60922 24.0746C3.00005 23.1872 2.37388 22.3814 1.85987 21.5102C-1.0492 16.581 -0.494403 10.0835 3.16487 5.68161C5.56757 2.79033 8.61343 0.988477 12.2973 0.282851C18.4298 -0.890645 24.7357 1.64485 28.1893 6.81944C31.575 11.8913 31.2403 18.7404 27.3355 23.4309C24.6464 26.661 21.1996 28.4934 17.0348 28.9859C16.457 29.0539 15.8725 29.0946 15.2914 29.0963C11.7086 29.1065 8.1249 29.104 4.54209 29.0997C3.29826 29.098 2.32716 28.3482 2.07142 27.1756C1.88706 26.3307 2.10371 25.5784 2.70608 24.9517C3.01364 24.6325 3.34074 24.3327 3.60922 24.0729V24.0746ZM10.5191 27.0678C11.367 27.0678 12.2149 27.0813 13.0628 27.0644C14.3441 27.0397 15.6338 27.0797 16.9031 26.9412C20.2811 26.5727 23.1205 25.0927 25.4034 22.5699C29.2258 18.3464 29.5614 11.9363 26.101 7.41298C22.9736 3.32528 18.7416 1.62363 13.6584 2.15093C9.81223 2.55002 6.67886 4.34338 4.37387 7.46478C2.41467 10.1175 1.67805 13.1157 2.17847 16.3789C2.58374 19.0248 3.77574 21.2886 5.68227 23.1737C6.25236 23.7375 6.24471 24.2843 5.67802 24.8532C5.19204 25.3406 4.69332 25.817 4.22434 26.3214C4.12153 26.4318 4.04847 26.6687 4.0969 26.7943C4.14532 26.92 4.35943 26.9905 4.51236 27.061C4.58202 27.0932 4.67973 27.0669 4.76384 27.0669C6.68226 27.0669 8.60069 27.0669 10.5183 27.0669L10.5191 27.0678Z" fill="#444444"/>
<path d="M19.6984 12.2454C19.6712 13.7577 18.6857 14.9643 17.1699 15.7506C16.4614 16.1183 16.1555 16.5887 16.1963 17.347C16.209 17.5788 16.2031 17.8131 16.1946 18.0449C16.1759 18.5289 15.7936 18.9212 15.2838 18.99C14.8666 19.0461 14.3119 18.7141 14.2422 18.2776C14.0085 16.8078 14.1666 15.2929 15.5786 14.3173C15.8029 14.1619 16.068 14.0668 16.3033 13.9258C16.904 13.5641 17.4342 13.1319 17.6117 12.4093C17.9303 11.1118 16.876 9.63348 15.5497 9.55621C14.661 9.50441 14.0408 10.0173 13.5243 10.6737C13.1904 11.0982 13.0204 11.595 12.8989 12.1155C12.7486 12.7591 12.187 13.086 11.5812 12.9018C11.108 12.7574 10.8047 12.2717 10.9185 11.713C11.2881 9.89416 12.2855 8.53131 14.0128 7.80361C15.6729 7.10478 17.6423 7.70511 18.7222 9.15287C19.3407 9.98162 19.6933 10.9029 19.6984 12.2445V12.2454Z" fill="#444444"/>
<path d="M15.272 22.6982C14.5048 22.6922 13.9509 22.1208 13.9551 21.3396C13.9594 20.5575 14.5371 20.0056 15.3383 20.0158C16.1004 20.026 16.6475 20.6042 16.639 21.3897C16.6314 22.1539 16.0562 22.7041 15.272 22.6973V22.6982Z" fill="#444444"/>
</svg>
