<svg width="24" height="24" viewBox="0 0 24 24" fill="none" xmlns="http://www.w3.org/2000/svg">
<path d="M21.8059 10.0415H21.0004V10H12.0004V14H17.6519C16.8274 16.3285 14.6119 18 12.0004 18C8.68687 18 6.00037 15.3135 6.00037 12C6.00037 8.6865 8.68687 6 12.0004 6C13.5299 6 14.9214 6.577 15.9809 7.5195L18.8094 4.691C17.0234 3.0265 14.6344 2 12.0004 2C6.47787 2 2.00037 6.4775 2.00037 12C2.00037 17.5225 6.47787 22 12.0004 22C17.5229 22 22.0004 17.5225 22.0004 12C22.0004 11.3295 21.9314 10.675 21.8059 10.0415Z" fill="#FFC107"/>
<path d="M3.15356 7.3455L6.43906 9.755C7.32806 7.554 9.48106 6 12.0006 6C13.5301 6 14.9216 6.577 15.9811 7.5195L18.8096 4.691C17.0236 3.0265 14.6346 2 12.0006 2C8.15956 2 4.82856 4.1685 3.15356 7.3455Z" fill="#FF3D00"/>
<path d="M11.9998 22.0001C14.5828 22.0001 16.9298 21.0116 18.7043 19.4041L15.6093 16.7851C14.5716 17.5743 13.3035 18.0011 11.9998 18.0001C9.39879 18.0001 7.19029 16.3416 6.35829 14.0271L3.09729 16.5396C4.75229 19.7781 8.11329 22.0001 11.9998 22.0001Z" fill="#4CAF50"/>
<path d="M21.8055 10.0415H21V10H12V14H17.6515C17.2571 15.1082 16.5467 16.0766 15.608 16.7855L15.6095 16.7845L18.7045 19.4035C18.4855 19.6025 22 17 22 12C22 11.3295 21.931 10.675 21.8055 10.0415Z" fill="#1976D2"/>
</svg>
