<svg width="28" height="30" viewBox="0 0 28 30" fill="none" xmlns="http://www.w3.org/2000/svg">
<path d="M11.0134 23.2546C11.0134 24.5108 11.0134 25.7396 11.0134 26.973C11.0134 28.2978 10.2044 29.1017 8.87888 29.1017C6.70779 29.1017 4.5367 29.1017 2.36562 29.1017C1.06296 29.1017 0.244805 28.2886 0.244805 26.9867C0.240234 21.7105 0.244805 16.4298 0.240234 11.1536C0.240234 10.3907 0.528189 9.80603 1.13609 9.34465C4.96178 6.40735 8.77832 3.47005 12.5994 0.532758C13.5273 -0.179868 14.3774 -0.1753 15.3007 0.532758C19.099 3.45178 22.8927 6.37538 26.6955 9.28526C27.3583 9.79232 27.6645 10.4136 27.6599 11.245C27.6462 16.4709 27.6554 21.7014 27.6554 26.9273C27.6554 28.316 26.8646 29.1017 25.4751 29.1017C23.3132 29.1017 21.1512 29.1017 18.9893 29.1017C17.7049 29.1017 16.8868 28.284 16.8868 27.0004C16.8868 25.7579 16.8868 24.5154 16.8868 23.25H11.0134V23.2546ZM25.6991 27.142V26.8451C25.6991 21.6466 25.6991 16.4481 25.7037 11.2496C25.7037 11.0531 25.6351 10.9344 25.4843 10.8201C21.7089 7.92397 17.9335 5.02321 14.1626 2.11789C14.0072 1.99912 13.9112 1.98085 13.7467 2.10876C9.98042 5.01408 6.20501 7.91483 2.42961 10.811C2.25592 10.9435 2.1965 11.0805 2.1965 11.2952C2.20107 16.4618 2.20107 21.6283 2.20107 26.7948V27.1237H9.05257C9.05257 25.8401 9.05257 24.5793 9.05257 23.3139C9.05257 22.1125 9.88901 21.2766 11.0911 21.272C12.9879 21.272 14.8848 21.272 16.7816 21.272C18.0066 21.272 18.8385 22.1034 18.8385 23.3231C18.8385 24.4834 18.8385 25.6482 18.8385 26.8085C18.8385 26.9136 18.8385 27.0232 18.8385 27.1329H25.69L25.6991 27.142Z" fill="#444444"/>
</svg>
