<svg width="20" height="30" viewBox="0 0 20 30" fill="none" xmlns="http://www.w3.org/2000/svg">
<path d="M9.87505 29.0908C7.88696 29.0908 5.89887 29.0916 3.91078 29.0908C1.63374 29.0892 -0.000230305 27.41 0.00605118 25.0652C0.00919192 23.8742 -0.0332081 22.6775 0.0696512 21.4946C0.32091 18.6074 2.60658 16.1202 5.37907 15.6392C5.82113 15.5623 6.2734 15.5235 6.72174 15.521C8.82682 15.5089 10.9327 15.5145 13.0386 15.5162C16.4046 15.5194 19.0696 17.8123 19.6632 21.2299C19.7283 21.6047 19.7425 21.9926 19.748 22.3755C19.7597 23.2435 19.7244 24.1139 19.7574 24.981C19.8461 27.3168 18.0316 29.1596 15.7796 29.1021C13.8127 29.0519 11.8427 29.0916 9.87505 29.0916V29.0908ZM9.8774 27.1517C11.8757 27.1517 13.874 27.1533 15.8723 27.1517C17.0697 27.1509 17.8674 26.3339 17.8714 25.1081C17.8737 24.1786 17.8761 23.2492 17.8714 22.3205C17.8565 19.6009 15.7828 17.465 13.1414 17.4569C10.9665 17.4504 8.79227 17.4504 6.61731 17.4569C3.96338 17.465 1.89442 19.6073 1.88578 22.3488C1.88264 23.2581 1.88421 24.1673 1.88578 25.0757C1.88736 26.3436 2.6749 27.1509 3.91235 27.1517C5.90122 27.1525 7.88931 27.1517 9.87819 27.1517H9.8774Z" fill="#444444"/>
<path d="M2.82471 7.26016C2.82863 3.24429 5.99843 -0.00727464 9.90315 1.22237e-05C13.7812 0.00729909 16.9416 3.28315 16.9306 7.28283C16.9196 11.3028 13.7568 14.547 9.85054 14.5454C5.9788 14.5438 2.82157 11.2696 2.82549 7.26016H2.82471ZM9.88823 12.6039C12.7361 12.6039 15.05 10.2057 15.0493 7.25368C15.0485 4.34784 12.7243 1.9448 9.91022 1.93994C7.04194 1.93508 4.7068 4.31627 4.7068 7.2464C4.7068 10.2186 7.01367 12.6039 9.88902 12.6047L9.88823 12.6039Z" fill="#444444"/>
</svg>
