<svg width="32" height="30" viewBox="0 0 32 30" fill="none" xmlns="http://www.w3.org/2000/svg">
<path d="M16.0942 25.8707C14.8654 25.8707 13.6413 25.8707 12.4126 25.8707C11.0638 25.8707 10.1445 24.952 10.1353 23.6086C10.1353 22.9576 10.126 22.3067 10.1353 21.6557C10.1491 20.52 9.73802 19.5736 8.89731 18.8211C7.2898 17.3807 6.19965 15.6218 5.62686 13.5443C4.09787 7.94886 7.49767 1.97951 13.1055 0.414463C19.3138 -1.31679 25.5914 2.54274 26.7047 8.87681C27.3883 12.7548 26.1966 16.088 23.3049 18.7703C22.4457 19.569 21.9791 20.4692 22.0207 21.6373C22.0438 22.2882 22.0253 22.9392 22.0207 23.5901C22.0161 24.9659 21.1107 25.8707 19.7388 25.8707C18.5239 25.8707 17.309 25.8707 16.0942 25.8707ZM19.8635 23.7009C19.8635 22.9715 19.8543 22.2559 19.8635 21.5403C19.8727 21.1479 19.8912 20.7509 19.9559 20.3677C20.1822 19.075 20.8798 18.0732 21.8359 17.1868C24.2287 14.98 25.1757 12.2331 24.529 9.04762C23.582 4.38941 19.226 1.49938 14.5236 2.29806C9.83965 3.09213 6.61077 7.84729 7.59929 12.4824C8.00117 14.366 8.92041 15.9449 10.3524 17.233C11.4425 18.2117 12.1031 19.4305 12.2463 20.8801C12.3248 21.6788 12.2786 22.496 12.2879 23.3039C12.2879 23.4331 12.2879 23.5624 12.2879 23.7009H19.8496H19.8635Z" fill="#444444"/>
<path d="M16.0755 29.1023C15.0407 29.1023 14.006 29.1023 12.9713 29.1023C12.2599 29.1023 11.761 28.6499 11.7657 28.022C11.7657 27.3895 12.2599 26.9509 12.9805 26.9509C15.0638 26.9509 17.1425 26.9509 19.2258 26.9509C19.9187 26.9509 20.4037 27.3895 20.4083 28.0128C20.413 28.6545 19.9326 29.1023 19.2212 29.1023C18.1726 29.1023 17.1287 29.1023 16.0801 29.1023H16.0755Z" fill="#444444"/>
<path d="M29.7073 11.2405C30.0676 11.2405 30.4279 11.2313 30.7882 11.2405C31.4026 11.259 31.8645 11.7207 31.8691 12.3024C31.8691 12.8702 31.4257 13.3642 30.8344 13.3827C30.0584 13.4057 29.2823 13.4104 28.5063 13.3827C27.9197 13.3596 27.4762 12.8471 27.4901 12.2839C27.5085 11.7068 27.9566 11.259 28.5571 11.2405C28.9405 11.2267 29.3239 11.2405 29.7027 11.2405H29.7073Z" fill="#444444"/>
<path d="M2.19012 11.2407C2.55966 11.2407 2.93382 11.2314 3.30337 11.2407C3.89925 11.2591 4.35194 11.707 4.37504 12.2794C4.39352 12.838 3.95007 13.3551 3.36342 13.3782C2.57814 13.4059 1.78824 13.4105 1.00296 13.3782C0.411691 13.3597 -0.0179032 12.8473 0.000573994 12.2748C0.0190512 11.7023 0.471742 11.2591 1.07687 11.2453C1.44641 11.2361 1.82057 11.2453 2.19012 11.2453V11.2407Z" fill="#444444"/>
<path d="M5.51576 24.4673C4.96606 24.4535 4.63347 24.2596 4.43485 23.8625C4.22698 23.447 4.26393 23.0269 4.58266 22.7038C5.15545 22.1221 5.76058 21.5634 6.37957 21.0279C6.78606 20.677 7.41429 20.7509 7.78845 21.1387C8.16723 21.5265 8.2319 22.1544 7.85312 22.5468C7.26647 23.1516 6.63825 23.7148 6.01002 24.2688C5.86221 24.3981 5.62662 24.4304 5.52038 24.4719L5.51576 24.4673Z" fill="#444444"/>
<path d="M26.3258 24.472C26.201 24.4074 25.9193 24.3243 25.7206 24.1534C25.1663 23.6779 24.6397 23.1747 24.1177 22.6669C23.6697 22.2329 23.6558 21.5912 24.0623 21.1572C24.4642 20.7233 25.1201 20.6817 25.5774 21.088C26.1318 21.582 26.6722 22.0898 27.2034 22.6022C27.5499 22.9393 27.6515 23.3501 27.4575 23.8026C27.2773 24.2227 26.9401 24.4351 26.3304 24.472H26.3258Z" fill="#444444"/>
<path d="M4.51812 0.192871C4.64746 0.262121 4.93848 0.354454 5.14172 0.539121C5.67294 1.02387 6.17183 1.54094 6.67533 2.05339C7.12802 2.51967 7.12802 3.16139 6.69843 3.59074C6.26883 4.02009 5.61751 4.0247 5.1602 3.5815C4.62898 3.06444 4.10238 2.54275 3.58964 2.00722C3.27091 1.67482 3.21548 1.26855 3.38639 0.853054C3.56193 0.432938 3.90376 0.220571 4.52274 0.192871H4.51812Z" fill="#444444"/>
<path d="M29.1852 1.31929C29.0605 1.55935 28.9773 1.83635 28.7972 2.03025C28.3029 2.56579 27.7809 3.07362 27.2543 3.58145C26.797 4.02465 26.1411 4.02004 25.7161 3.58607C25.2957 3.16134 25.2865 2.52424 25.7207 2.07642C26.2335 1.54089 26.7601 1.0192 27.2913 0.506755C27.6331 0.178972 28.0442 0.109722 28.4738 0.299005C28.8896 0.483672 29.1067 0.820688 29.1806 1.31929H29.1852Z" fill="#444444"/>
<path d="M10.9572 9.86014C10.3151 9.86476 9.80233 9.29691 9.87624 8.66442C10.1488 6.40688 11.8718 4.64793 14.126 4.32938C14.7404 4.24166 15.2947 4.63408 15.3871 5.22963C15.4794 5.82979 15.0729 6.36994 14.4262 6.46689C13.5763 6.59616 12.888 6.99781 12.4538 7.73648C12.2459 8.09658 12.1305 8.52131 12.0288 8.92757C11.8949 9.48619 11.5069 9.85552 10.9572 9.86014Z" fill="#444444"/>
</svg>
