<svg width="22" height="26" viewBox="0 0 22 26" fill="none" xmlns="http://www.w3.org/2000/svg">
<path d="M11.0942 25.8707C9.86543 25.8707 8.64132 25.8707 7.41259 25.8707C6.06376 25.8707 5.14452 24.952 5.13528 23.6086C5.13528 22.9576 5.12604 22.3067 5.13528 21.6557C5.14914 20.52 4.73802 19.5736 3.89731 18.8211C2.2898 17.3807 1.19965 15.6218 0.626857 13.5443C-0.902128 7.94886 2.49767 1.97951 8.10549 0.414463C14.3138 -1.31679 20.5914 2.54274 21.7047 8.87681C22.3883 12.7548 21.1966 16.088 18.3049 18.7703C17.4457 19.569 16.9791 20.4692 17.0207 21.6373C17.0438 22.2882 17.0253 22.9392 17.0207 23.5901C17.0161 24.9659 16.1107 25.8707 14.7388 25.8707C13.5239 25.8707 12.309 25.8707 11.0942 25.8707ZM14.8635 23.7009C14.8635 22.9715 14.8543 22.2559 14.8635 21.5403C14.8727 21.1479 14.8912 20.7509 14.9559 20.3677C15.1822 19.075 15.8798 18.0732 16.8359 17.1868C19.2287 14.98 20.1757 12.2331 19.529 9.04762C18.582 4.38941 14.226 1.49938 9.52361 2.29806C4.83965 3.09213 1.61077 7.84729 2.59929 12.4824C3.00117 14.366 3.92041 15.9449 5.35239 17.233C6.44254 18.2117 7.1031 19.4305 7.2463 20.8801C7.32483 21.6788 7.27863 22.496 7.28787 23.3039C7.28787 23.4331 7.28787 23.5624 7.28787 23.7009H14.8496H14.8635Z" fill="#444444"/>
</svg>
