<svg width="101" height="100" viewBox="0 0 101 100" fill="none" xmlns="http://www.w3.org/2000/svg">
<path d="M53.7139 0.138122C45.6465 -0.462773 37.5537 0.902813 30.1301 4.11768C22.7065 7.33255 16.1739 12.3007 11.0928 18.5957C6.01171 24.8907 2.53394 32.3246 0.95796 40.2594C-0.618021 48.1942 -0.245147 56.393 2.04458 64.152C4.33431 71.9109 8.47251 78.9985 14.104 84.8063C19.7355 90.6141 26.6922 94.9688 34.3769 97.4965C42.0617 100.024 50.245 100.65 58.2246 99.3189C66.2042 97.9882 73.7418 94.7412 80.1904 89.8565L77.1713 85.8709C71.3676 90.2671 64.5838 93.1894 57.4021 94.387C50.2205 95.5847 42.8555 95.0218 35.9392 92.7469C29.023 90.4719 22.762 86.5527 17.6936 81.3257C12.6253 76.0986 8.90088 69.7198 6.84012 62.7368C4.77937 55.7537 4.44378 48.3748 5.86216 41.2335C7.28055 34.0922 10.4105 27.4017 14.9835 21.7361C19.5565 16.0706 25.4359 11.5993 32.1171 8.70591C38.7983 5.81253 46.0818 4.5835 53.3425 5.12431L53.7139 0.138122Z" fill="#F3F3F3"/>
<rect x="18" y="18" width="64" height="64" rx="32" fill="#74E7C7"/>
<path d="M46.9099 57.9201L53.4299 51.4001C54.1999 50.6301 54.1999 49.3701 53.4299 48.6001L46.9099 42.0801" stroke="white" stroke-width="1.5" stroke-miterlimit="10" stroke-linecap="round" stroke-linejoin="round"/>
<path d="M72.4256 92.3933C73.0484 93.6256 74.5559 94.1251 75.7556 93.4415C84.836 88.2671 92.087 80.3639 96.4572 70.8241C101.175 60.5251 102.256 48.9291 99.5227 37.9356C96.7893 26.942 90.4037 17.2025 81.4118 10.3122C73.0828 3.92988 62.9749 0.342646 52.5285 0.0233384C51.1485 -0.018845 50.0503 1.12851 50.0772 2.50897C50.104 3.88942 51.2457 4.97949 52.6255 5.02934C61.9385 5.3658 70.9409 8.58779 78.3706 14.281C86.4633 20.4822 92.2104 29.2478 94.6704 39.142C97.1304 49.0362 96.1577 59.4726 91.9115 68.7417C88.0131 77.2514 81.5679 84.3142 73.4969 88.973C72.3011 89.6632 71.8028 91.1611 72.4256 92.3933Z" fill="#74E7C7"/>
</svg>
